<svg xmlns="http://www.w3.org/2000/svg" xmlns:xlink="http://www.w3.org/1999/xlink" id="wave" version="1.1" viewBox="0 0 1440 290" style="transform:rotate(180deg);transition:.3s"><defs><linearGradient id="sw-gradient-0" x1="0" x2="0" y1="1" y2="0"><stop offset="0%" stop-color="rgba(255, 51.187, 51.187, 1)"/><stop offset="100%" stop-color="rgba(233.759, 48.307, 255, 1)"/></linearGradient></defs><path style="transform:translate(0,0);opacity:1" fill="url(#sw-gradient-0)" d="M0,29L30,58C60,87,120,145,180,154.7C240,164,300,126,360,111.2C420,97,480,106,540,96.7C600,87,660,58,720,43.5C780,29,840,29,900,48.3C960,68,1020,106,1080,116C1140,126,1200,106,1260,120.8C1320,135,1380,184,1440,188.5C1500,193,1560,155,1620,145C1680,135,1740,155,1800,178.8C1860,203,1920,232,1980,207.8C2040,184,2100,106,2160,96.7C2220,87,2280,145,2340,159.5C2400,174,2460,145,2520,125.7C2580,106,2640,97,2700,87C2760,77,2820,68,2880,58C2940,48,3000,39,3060,48.3C3120,58,3180,87,3240,87C3300,87,3360,58,3420,53.2C3480,48,3540,68,3600,72.5C3660,77,3720,68,3780,96.7C3840,126,3900,193,3960,217.5C4020,242,4080,222,4140,188.5C4200,155,4260,106,4290,82.2L4320,58L4320,290L4290,290C4260,290,4200,290,4140,290C4080,290,4020,290,3960,290C3900,290,3840,290,3780,290C3720,290,3660,290,3600,290C3540,290,3480,290,3420,290C3360,290,3300,290,3240,290C3180,290,3120,290,3060,290C3000,290,2940,290,2880,290C2820,290,2760,290,2700,290C2640,290,2580,290,2520,290C2460,290,2400,290,2340,290C2280,290,2220,290,2160,290C2100,290,2040,290,1980,290C1920,290,1860,290,1800,290C1740,290,1680,290,1620,290C1560,290,1500,290,1440,290C1380,290,1320,290,1260,290C1200,290,1140,290,1080,290C1020,290,960,290,900,290C840,290,780,290,720,290C660,290,600,290,540,290C480,290,420,290,360,290C300,290,240,290,180,290C120,290,60,290,30,290L0,290Z"/><defs><linearGradient id="sw-gradient-1" x1="0" x2="0" y1="1" y2="0"><stop offset="0%" stop-color="rgba(187.607, 62, 243, 1)"/><stop offset="100%" stop-color="rgba(0, 185.886, 255, 1)"/></linearGradient></defs><path style="transform:translate(0,50px);opacity:.9" fill="url(#sw-gradient-1)" d="M0,174L30,164.3C60,155,120,135,180,120.8C240,106,300,97,360,96.7C420,97,480,106,540,116C600,126,660,135,720,120.8C780,106,840,68,900,62.8C960,58,1020,87,1080,101.5C1140,116,1200,116,1260,111.2C1320,106,1380,97,1440,120.8C1500,145,1560,203,1620,198.2C1680,193,1740,126,1800,125.7C1860,126,1920,193,1980,203C2040,213,2100,164,2160,130.5C2220,97,2280,77,2340,72.5C2400,68,2460,77,2520,87C2580,97,2640,106,2700,135.3C2760,164,2820,213,2880,203C2940,193,3000,126,3060,82.2C3120,39,3180,19,3240,43.5C3300,68,3360,135,3420,135.3C3480,135,3540,68,3600,43.5C3660,19,3720,39,3780,72.5C3840,106,3900,155,3960,149.8C4020,145,4080,87,4140,67.7C4200,48,4260,68,4290,77.3L4320,87L4320,290L4290,290C4260,290,4200,290,4140,290C4080,290,4020,290,3960,290C3900,290,3840,290,3780,290C3720,290,3660,290,3600,290C3540,290,3480,290,3420,290C3360,290,3300,290,3240,290C3180,290,3120,290,3060,290C3000,290,2940,290,2880,290C2820,290,2760,290,2700,290C2640,290,2580,290,2520,290C2460,290,2400,290,2340,290C2280,290,2220,290,2160,290C2100,290,2040,290,1980,290C1920,290,1860,290,1800,290C1740,290,1680,290,1620,290C1560,290,1500,290,1440,290C1380,290,1320,290,1260,290C1200,290,1140,290,1080,290C1020,290,960,290,900,290C840,290,780,290,720,290C660,290,600,290,540,290C480,290,420,290,360,290C300,290,240,290,180,290C120,290,60,290,30,290L0,290Z"/><defs><linearGradient id="sw-gradient-2" x1="0" x2="0" y1="1" y2="0"><stop offset="0%" stop-color="rgba(19.019, 248.587, 61.926, 1)"/><stop offset="100%" stop-color="rgba(246.31, 232.73, 42.489, 1)"/></linearGradient></defs><path style="transform:translate(0,100px);opacity:.8" fill="url(#sw-gradient-2)" d="M0,203L30,203C60,203,120,203,180,198.2C240,193,300,184,360,164.3C420,145,480,116,540,125.7C600,135,660,184,720,212.7C780,242,840,251,900,251.3C960,251,1020,242,1080,203C1140,164,1200,97,1260,82.2C1320,68,1380,106,1440,140.2C1500,174,1560,203,1620,193.3C1680,184,1740,135,1800,106.3C1860,77,1920,68,1980,72.5C2040,77,2100,97,2160,101.5C2220,106,2280,97,2340,106.3C2400,116,2460,145,2520,159.5C2580,174,2640,174,2700,149.8C2760,126,2820,77,2880,87C2940,97,3000,164,3060,159.5C3120,155,3180,77,3240,48.3C3300,19,3360,39,3420,67.7C3480,97,3540,135,3600,130.5C3660,126,3720,77,3780,91.8C3840,106,3900,184,3960,198.2C4020,213,4080,164,4140,145C4200,126,4260,135,4290,140.2L4320,145L4320,290L4290,290C4260,290,4200,290,4140,290C4080,290,4020,290,3960,290C3900,290,3840,290,3780,290C3720,290,3660,290,3600,290C3540,290,3480,290,3420,290C3360,290,3300,290,3240,290C3180,290,3120,290,3060,290C3000,290,2940,290,2880,290C2820,290,2760,290,2700,290C2640,290,2580,290,2520,290C2460,290,2400,290,2340,290C2280,290,2220,290,2160,290C2100,290,2040,290,1980,290C1920,290,1860,290,1800,290C1740,290,1680,290,1620,290C1560,290,1500,290,1440,290C1380,290,1320,290,1260,290C1200,290,1140,290,1080,290C1020,290,960,290,900,290C840,290,780,290,720,290C660,290,600,290,540,290C480,290,420,290,360,290C300,290,240,290,180,290C120,290,60,290,30,290L0,290Z"/></svg>