<?xml version="1.0" standalone="no"?>
<svg xmlns:xlink="http://www.w3.org/1999/xlink" id="wave" style="transform:rotate(180deg); transition: 0.3s" viewBox="0 0 1440 490" version="1.1" xmlns="http://www.w3.org/2000/svg"><defs><linearGradient id="sw-gradient-0" x1="0" x2="0" y1="1" y2="0"><stop stop-color="rgba(255, 51.187, 51.187, 1)" offset="0%"/><stop stop-color="rgba(233.759, 48.307, 255, 1)" offset="100%"/></linearGradient></defs><path style="transform:translate(0, 0px); opacity:1" fill="url(#sw-gradient-0)" d="M0,49L30,98C60,147,120,245,180,261.3C240,278,300,212,360,187.8C420,163,480,180,540,163.3C600,147,660,98,720,73.5C780,49,840,49,900,81.7C960,114,1020,180,1080,196C1140,212,1200,180,1260,204.2C1320,229,1380,310,1440,318.5C1500,327,1560,261,1620,245C1680,229,1740,261,1800,302.2C1860,343,1920,392,1980,351.2C2040,310,2100,180,2160,163.3C2220,147,2280,245,2340,269.5C2400,294,2460,245,2520,212.3C2580,180,2640,163,2700,147C2760,131,2820,114,2880,98C2940,82,3000,65,3060,81.7C3120,98,3180,147,3240,147C3300,147,3360,98,3420,89.8C3480,82,3540,114,3600,122.5C3660,131,3720,114,3780,163.3C3840,212,3900,327,3960,367.5C4020,408,4080,376,4140,318.5C4200,261,4260,180,4290,138.8L4320,98L4320,490L4290,490C4260,490,4200,490,4140,490C4080,490,4020,490,3960,490C3900,490,3840,490,3780,490C3720,490,3660,490,3600,490C3540,490,3480,490,3420,490C3360,490,3300,490,3240,490C3180,490,3120,490,3060,490C3000,490,2940,490,2880,490C2820,490,2760,490,2700,490C2640,490,2580,490,2520,490C2460,490,2400,490,2340,490C2280,490,2220,490,2160,490C2100,490,2040,490,1980,490C1920,490,1860,490,1800,490C1740,490,1680,490,1620,490C1560,490,1500,490,1440,490C1380,490,1320,490,1260,490C1200,490,1140,490,1080,490C1020,490,960,490,900,490C840,490,780,490,720,490C660,490,600,490,540,490C480,490,420,490,360,490C300,490,240,490,180,490C120,490,60,490,30,490L0,490Z"/><defs><linearGradient id="sw-gradient-1" x1="0" x2="0" y1="1" y2="0"><stop stop-color="rgba(187.607, 62, 243, 1)" offset="0%"/><stop stop-color="rgba(0, 185.886, 255, 1)" offset="100%"/></linearGradient></defs><path style="transform:translate(0, 50px); opacity:0.9" fill="url(#sw-gradient-1)" d="M0,294L30,277.7C60,261,120,229,180,204.2C240,180,300,163,360,163.3C420,163,480,180,540,196C600,212,660,229,720,204.2C780,180,840,114,900,106.2C960,98,1020,147,1080,171.5C1140,196,1200,196,1260,187.8C1320,180,1380,163,1440,204.2C1500,245,1560,343,1620,334.8C1680,327,1740,212,1800,212.3C1860,212,1920,327,1980,343C2040,359,2100,278,2160,220.5C2220,163,2280,131,2340,122.5C2400,114,2460,131,2520,147C2580,163,2640,180,2700,228.7C2760,278,2820,359,2880,343C2940,327,3000,212,3060,138.8C3120,65,3180,33,3240,73.5C3300,114,3360,229,3420,228.7C3480,229,3540,114,3600,73.5C3660,33,3720,65,3780,122.5C3840,180,3900,261,3960,253.2C4020,245,4080,147,4140,114.3C4200,82,4260,114,4290,130.7L4320,147L4320,490L4290,490C4260,490,4200,490,4140,490C4080,490,4020,490,3960,490C3900,490,3840,490,3780,490C3720,490,3660,490,3600,490C3540,490,3480,490,3420,490C3360,490,3300,490,3240,490C3180,490,3120,490,3060,490C3000,490,2940,490,2880,490C2820,490,2760,490,2700,490C2640,490,2580,490,2520,490C2460,490,2400,490,2340,490C2280,490,2220,490,2160,490C2100,490,2040,490,1980,490C1920,490,1860,490,1800,490C1740,490,1680,490,1620,490C1560,490,1500,490,1440,490C1380,490,1320,490,1260,490C1200,490,1140,490,1080,490C1020,490,960,490,900,490C840,490,780,490,720,490C660,490,600,490,540,490C480,490,420,490,360,490C300,490,240,490,180,490C120,490,60,490,30,490L0,490Z"/><defs><linearGradient id="sw-gradient-2" x1="0" x2="0" y1="1" y2="0"><stop stop-color="rgba(19.019, 248.587, 61.926, 1)" offset="0%"/><stop stop-color="rgba(246.31, 232.73, 42.489, 1)" offset="100%"/></linearGradient></defs><path style="transform:translate(0, 100px); opacity:0.8" fill="url(#sw-gradient-2)" d="M0,343L30,343C60,343,120,343,180,334.8C240,327,300,310,360,277.7C420,245,480,196,540,212.3C600,229,660,310,720,359.3C780,408,840,425,900,424.7C960,425,1020,408,1080,343C1140,278,1200,163,1260,138.8C1320,114,1380,180,1440,236.8C1500,294,1560,343,1620,326.7C1680,310,1740,229,1800,179.7C1860,131,1920,114,1980,122.5C2040,131,2100,163,2160,171.5C2220,180,2280,163,2340,179.7C2400,196,2460,245,2520,269.5C2580,294,2640,294,2700,253.2C2760,212,2820,131,2880,147C2940,163,3000,278,3060,269.5C3120,261,3180,131,3240,81.7C3300,33,3360,65,3420,114.3C3480,163,3540,229,3600,220.5C3660,212,3720,131,3780,155.2C3840,180,3900,310,3960,334.8C4020,359,4080,278,4140,245C4200,212,4260,229,4290,236.8L4320,245L4320,490L4290,490C4260,490,4200,490,4140,490C4080,490,4020,490,3960,490C3900,490,3840,490,3780,490C3720,490,3660,490,3600,490C3540,490,3480,490,3420,490C3360,490,3300,490,3240,490C3180,490,3120,490,3060,490C3000,490,2940,490,2880,490C2820,490,2760,490,2700,490C2640,490,2580,490,2520,490C2460,490,2400,490,2340,490C2280,490,2220,490,2160,490C2100,490,2040,490,1980,490C1920,490,1860,490,1800,490C1740,490,1680,490,1620,490C1560,490,1500,490,1440,490C1380,490,1320,490,1260,490C1200,490,1140,490,1080,490C1020,490,960,490,900,490C840,490,780,490,720,490C660,490,600,490,540,490C480,490,420,490,360,490C300,490,240,490,180,490C120,490,60,490,30,490L0,490Z"/></svg>